<svg viewBox="0 0 32 32" width="24" height="24" fill="#005098">
  <path d="M20,5h3v5h-3V5z M25,12H7V2h18V12z M24,5c0-0.552-0.448-1-1-1h-3c-0.552,0-1,0.448-1,1v5
	c0,0.552,0.448,1,1,1h3c0.552,0,1-0.448,1-1V5z M27,2h-1v10c0,0.552-0.448,1-1,1H7c-0.552,0-1-0.448-1-1V2H5C3.343,2,2,3.343,2,5v22
	c0,1.657,1.343,3,3,3h4v-9c0-0.552,0.448-1,1-1h12c0.552,0,1,0.448,1,1v9h4c1.657,0,3-1.343,3-3V5C30,3.343,28.657,2,27,2z M10,21
	h12v9H10V21z M12,24.5c0,0.276,0.224,0.5,0.5,0.5h7c0.276,0,0.5-0.224,0.5-0.5c0-0.276-0.224-0.5-0.5-0.5h-7
	C12.224,24,12,24.224,12,24.5z M12,26.5c0,0.276,0.224,0.5,0.5,0.5h7c0.276,0,0.5-0.224,0.5-0.5c0-0.276-0.224-0.5-0.5-0.5h-7
	C12.224,26,12,26.224,12,26.5z"/>
</svg>